<mxfile host="Electron" modified="2024-04-21T20:29:33.414Z" agent="Mozilla/5.0 (Windows NT 10.0; Win64; x64) AppleWebKit/537.36 (KHTML, like Gecko) draw.io/24.2.5 Chrome/120.0.6099.109 Electron/28.1.0 Safari/537.36" etag="vdZ8hUb7_k9M-kwFQa6y" version="24.2.5" type="device">
  <diagram name="Page-1" id="y_qWvDvjL6aNYklG5LqE">
    <mxGraphModel dx="1434" dy="879" grid="1" gridSize="10" guides="1" tooltips="1" connect="1" arrows="1" fold="1" page="1" pageScale="1" pageWidth="850" pageHeight="1100" math="0" shadow="0">
      <root>
        <mxCell id="0" />
        <mxCell id="1" parent="0" />
        <mxCell id="RovKl5FZ5DJrU9avnmrL-13" value="" style="whiteSpace=wrap;html=1;aspect=fixed;fillColor=#fff2cc;strokeColor=#000000;container=0;" parent="1" vertex="1">
          <mxGeometry x="490" y="450" width="210" height="210" as="geometry" />
        </mxCell>
        <mxCell id="RovKl5FZ5DJrU9avnmrL-24" value="" style="rounded=0;whiteSpace=wrap;html=1;fillColor=#d5e8d4;strokeColor=#82b366;" parent="1" vertex="1">
          <mxGeometry x="505" y="500" width="185" height="130" as="geometry" />
        </mxCell>
        <mxCell id="RovKl5FZ5DJrU9avnmrL-7" value="" style="group" parent="1" vertex="1" connectable="0">
          <mxGeometry x="500" y="130" width="210" height="210" as="geometry" />
        </mxCell>
        <mxCell id="RovKl5FZ5DJrU9avnmrL-8" value="" style="whiteSpace=wrap;html=1;aspect=fixed;fillColor=#fff2cc;strokeColor=#000000;" parent="RovKl5FZ5DJrU9avnmrL-7" vertex="1">
          <mxGeometry width="210" height="210" as="geometry" />
        </mxCell>
        <mxCell id="RovKl5FZ5DJrU9avnmrL-9" value="" style="html=1;whiteSpace=wrap;shape=isoCube2;backgroundOutline=1;isoAngle=15;fillColor=#fff2cc;strokeColor=#000000;" parent="RovKl5FZ5DJrU9avnmrL-7" vertex="1">
          <mxGeometry x="170" y="10" width="27" height="30" as="geometry" />
        </mxCell>
        <mxCell id="RovKl5FZ5DJrU9avnmrL-10" value="&amp;lt;&amp;lt;artifact&amp;gt;&amp;gt;&lt;div&gt;SQL database&lt;/div&gt;" style="rounded=0;whiteSpace=wrap;html=1;fillColor=#dae8fc;strokeColor=#6c8ebf;" parent="RovKl5FZ5DJrU9avnmrL-7" vertex="1">
          <mxGeometry x="45" y="75" width="120" height="60" as="geometry" />
        </mxCell>
        <mxCell id="RovKl5FZ5DJrU9avnmrL-11" value="&amp;lt;&amp;lt;device&amp;gt;&amp;gt;" style="text;html=1;align=center;verticalAlign=middle;whiteSpace=wrap;rounded=0;" parent="RovKl5FZ5DJrU9avnmrL-7" vertex="1">
          <mxGeometry x="75" width="60" height="30" as="geometry" />
        </mxCell>
        <mxCell id="RovKl5FZ5DJrU9avnmrL-18" value="Database Server" style="text;html=1;align=center;verticalAlign=middle;whiteSpace=wrap;rounded=0;container=0;fontStyle=1" parent="RovKl5FZ5DJrU9avnmrL-7" vertex="1">
          <mxGeometry x="67.5" y="20" width="75" height="30" as="geometry" />
        </mxCell>
        <mxCell id="RovKl5FZ5DJrU9avnmrL-1" value="" style="whiteSpace=wrap;html=1;aspect=fixed;fillColor=#fff2cc;strokeColor=#000000;container=0;" parent="1" vertex="1">
          <mxGeometry x="90" y="210" width="210" height="210" as="geometry" />
        </mxCell>
        <mxCell id="RovKl5FZ5DJrU9avnmrL-2" value="" style="html=1;whiteSpace=wrap;shape=isoCube2;backgroundOutline=1;isoAngle=15;fillColor=#fff2cc;strokeColor=#000000;container=0;" parent="1" vertex="1">
          <mxGeometry x="260" y="220" width="27" height="30" as="geometry" />
        </mxCell>
        <mxCell id="RovKl5FZ5DJrU9avnmrL-4" value="&amp;lt;&amp;lt;artifact&amp;gt;&amp;gt;&lt;div&gt;.net&lt;/div&gt;" style="rounded=0;whiteSpace=wrap;html=1;fillColor=#dae8fc;strokeColor=#6c8ebf;container=0;" parent="1" vertex="1">
          <mxGeometry x="135" y="285" width="120" height="60" as="geometry" />
        </mxCell>
        <mxCell id="RovKl5FZ5DJrU9avnmrL-5" value="&amp;lt;&amp;lt;device&amp;gt;&amp;gt;" style="text;html=1;align=center;verticalAlign=middle;whiteSpace=wrap;rounded=0;container=0;" parent="1" vertex="1">
          <mxGeometry x="165" y="210" width="60" height="30" as="geometry" />
        </mxCell>
        <mxCell id="RovKl5FZ5DJrU9avnmrL-17" value="Web Server" style="text;html=1;align=center;verticalAlign=middle;whiteSpace=wrap;rounded=0;container=0;fontStyle=1" parent="1" vertex="1">
          <mxGeometry x="157.5" y="230" width="75" height="30" as="geometry" />
        </mxCell>
        <mxCell id="RovKl5FZ5DJrU9avnmrL-20" value="" style="endArrow=none;html=1;rounded=0;entryX=0;entryY=0.5;entryDx=0;entryDy=0;exitX=1;exitY=0.5;exitDx=0;exitDy=0;" parent="1" source="RovKl5FZ5DJrU9avnmrL-1" target="RovKl5FZ5DJrU9avnmrL-8" edge="1">
          <mxGeometry width="50" height="50" relative="1" as="geometry">
            <mxPoint x="290" y="570" as="sourcePoint" />
            <mxPoint x="340" y="520" as="targetPoint" />
          </mxGeometry>
        </mxCell>
        <mxCell id="RovKl5FZ5DJrU9avnmrL-21" value="" style="endArrow=none;html=1;rounded=0;entryX=0;entryY=0.5;entryDx=0;entryDy=0;exitX=1;exitY=0.5;exitDx=0;exitDy=0;" parent="1" source="RovKl5FZ5DJrU9avnmrL-1" target="RovKl5FZ5DJrU9avnmrL-13" edge="1">
          <mxGeometry width="50" height="50" relative="1" as="geometry">
            <mxPoint x="330" y="400" as="sourcePoint" />
            <mxPoint x="530" y="320" as="targetPoint" />
          </mxGeometry>
        </mxCell>
        <mxCell id="RovKl5FZ5DJrU9avnmrL-22" value="port 80" style="text;html=1;align=center;verticalAlign=middle;whiteSpace=wrap;rounded=0;" parent="1" vertex="1">
          <mxGeometry x="360" y="450" width="60" height="30" as="geometry" />
        </mxCell>
        <mxCell id="RovKl5FZ5DJrU9avnmrL-14" value="" style="html=1;whiteSpace=wrap;shape=isoCube2;backgroundOutline=1;isoAngle=15;fillColor=#fff2cc;strokeColor=#000000;container=0;" parent="1" vertex="1">
          <mxGeometry x="660" y="460" width="27" height="30" as="geometry" />
        </mxCell>
        <mxCell id="RovKl5FZ5DJrU9avnmrL-16" value="&amp;lt;&amp;lt;device&amp;gt;&amp;gt;" style="text;html=1;align=center;verticalAlign=middle;whiteSpace=wrap;rounded=0;container=0;" parent="1" vertex="1">
          <mxGeometry x="565" y="450" width="60" height="30" as="geometry" />
        </mxCell>
        <mxCell id="RovKl5FZ5DJrU9avnmrL-19" value="User PC" style="text;html=1;align=center;verticalAlign=middle;whiteSpace=wrap;rounded=0;container=0;fontStyle=1" parent="1" vertex="1">
          <mxGeometry x="557.5" y="470" width="75" height="30" as="geometry" />
        </mxCell>
        <mxCell id="RovKl5FZ5DJrU9avnmrL-15" value="&amp;lt;&amp;lt;artifact&amp;gt;&amp;gt;&lt;div&gt;windows forms&lt;/div&gt;" style="rounded=0;whiteSpace=wrap;html=1;fillColor=#dae8fc;strokeColor=#6c8ebf;container=0;" parent="1" vertex="1">
          <mxGeometry x="537.5" y="560" width="120" height="60" as="geometry" />
        </mxCell>
        <mxCell id="RovKl5FZ5DJrU9avnmrL-25" value="&amp;lt;&amp;lt;device&amp;gt;&amp;gt;" style="text;html=1;align=center;verticalAlign=middle;whiteSpace=wrap;rounded=0;" parent="1" vertex="1">
          <mxGeometry x="565" y="500" width="60" height="30" as="geometry" />
        </mxCell>
        <mxCell id="RovKl5FZ5DJrU9avnmrL-26" value="desktop browser" style="text;html=1;align=center;verticalAlign=middle;whiteSpace=wrap;rounded=0;" parent="1" vertex="1">
          <mxGeometry x="565" y="520" width="60" height="30" as="geometry" />
        </mxCell>
      </root>
    </mxGraphModel>
  </diagram>
</mxfile>
